<svg width="586" height="543" viewBox="0 0 586 543" fill="none" xmlns="http://www.w3.org/2000/svg">
<path d="M472.552 288.533H261.735L150.913 467.89C184.195 488.512 222.583 499.409 261.735 499.351C378.166 499.351 472.552 404.964 472.552 288.533Z" fill="#DCDCDC"/>
<path d="M0.000246824 258.162C-0.0168064 294.105 9.1626 329.455 26.6653 360.848C44.168 392.242 69.4118 418.636 99.9954 437.518L210.817 258.162L27.7493 153.551C9.51188 185.395 -0.0560293 221.465 0.000246824 258.162Z" fill="#DCDCDC"/>
<path d="M315.668 20.1135L270.221 226.003H481.038C481.038 125.177 410.252 40.898 315.668 20.1135Z" fill="#36A0DC"/>
<path d="M225.11 1.64443e-05C187.939 -0.0146655 151.427 9.80217 119.276 28.4547C87.1244 47.1071 60.4787 73.9316 42.0415 106.207L225.11 210.817L270.557 4.92751C255.63 1.64817 240.392 -0.00396181 225.11 1.64443e-05Z" fill="#DCDCDC"/>
<path d="M343.752 168.625L342.297 167.253L452.021 50.811H541.335V52.811H452.885L343.752 168.625Z" fill="#3F3D56"/>
<path d="M586 66.1035H480.591V69.6767H586V66.1035Z" fill="#36A0DC"/>
<path d="M586 81.2896H480.591V84.8627H586V81.2896Z" fill="#36A0DC"/>
<path d="M586 96.4756H480.591V100.049H586V96.4756Z" fill="#36A0DC"/>
<path d="M550 508.104H444.591V511.677H550V508.104Z" fill="#36A0DC"/>
<path d="M550 523.29H444.591V526.863H550V523.29Z" fill="#36A0DC"/>
<path d="M550 538.476H444.591V542.049H550V538.476Z" fill="#36A0DC"/>
<path d="M505 490.176H399.475L399.177 489.743L317.177 370.743L318.823 369.608L400.525 488.176H505V490.176Z" fill="#3F3D56"/>
</svg>
